<svg height="634pt" preserveAspectRatio="xMidYMid meet" viewBox="0 0 777 634" width="777pt" xmlns="http://www.w3.org/2000/svg"><g transform="matrix(.1 0 0 -.1 0 634)"><path d="m1249 5719c-6-4-9-489-6-1290 3-1250 4-1286 24-1359 62-233 197-368 425-426 48-12 131-17 345-21l281-5 84 63c45 34 86 68 90 73 4 6 8 48 8 92 0 66-3 83-16 88-9 3-165 6-347 6-300 0-336 2-372 19-62 28-101 67-132 129l-28 57v750 750l424 5 423 5 1 150v150l-427 3-426 2v380 379l-171 3c-94 2-175 0-180-3z"/><path d="m3030 4955c0-3 0-528 0-1167v-1163l175-3 175-2 2 1012 3 1013 435 3c445 3 574-4 632-34 43-21 86-62 105-99 42-80 43-92 43-1012v-883h180 181l-3 913c-3 904-4 913-25 990-63 223-188 348-408 409-79 22-92 22-787 26-390 1-708 1-708-3z"/></g></svg>